<mxfile host="app.diagrams.net" modified="2021-12-16T22:29:24.716Z" agent="5.0 (X11; Linux x86_64) AppleWebKit/537.36 (KHTML, like Gecko) Chrome/96.0.4664.45 Safari/537.36" etag="9rw64MPWjVyuxtvZKnSp" version="15.9.6" type="github">
  <diagram id="C5RBs43oDa-KdzZeNtuy" name="Page-1">
    <mxGraphModel dx="980" dy="609" grid="1" gridSize="10" guides="1" tooltips="1" connect="1" arrows="1" fold="1" page="1" pageScale="1" pageWidth="827" pageHeight="1169" math="0" shadow="0">
      <root>
        <mxCell id="WIyWlLk6GJQsqaUBKTNV-0" />
        <mxCell id="WIyWlLk6GJQsqaUBKTNV-1" parent="WIyWlLk6GJQsqaUBKTNV-0" />
        <mxCell id="ZdTx6Y_ycxj7G1otqzek-17" style="edgeStyle=orthogonalEdgeStyle;rounded=0;orthogonalLoop=1;jettySize=auto;html=1;exitX=0.5;exitY=1;exitDx=0;exitDy=0;entryX=0.5;entryY=0;entryDx=0;entryDy=0;" edge="1" parent="WIyWlLk6GJQsqaUBKTNV-1" source="WIyWlLk6GJQsqaUBKTNV-3" target="ZdTx6Y_ycxj7G1otqzek-9">
          <mxGeometry relative="1" as="geometry" />
        </mxCell>
        <mxCell id="WIyWlLk6GJQsqaUBKTNV-3" value="Объявление&lt;br&gt;A, B, C" style="rounded=1;whiteSpace=wrap;html=1;fontSize=12;glass=0;strokeWidth=1;shadow=0;" parent="WIyWlLk6GJQsqaUBKTNV-1" vertex="1">
          <mxGeometry x="354" y="150" width="120" height="40" as="geometry" />
        </mxCell>
        <mxCell id="ZdTx6Y_ycxj7G1otqzek-1" style="edgeStyle=none;rounded=0;orthogonalLoop=1;jettySize=auto;html=1;entryX=0.5;entryY=0;entryDx=0;entryDy=0;" edge="1" parent="WIyWlLk6GJQsqaUBKTNV-1" source="ZdTx6Y_ycxj7G1otqzek-0" target="WIyWlLk6GJQsqaUBKTNV-3">
          <mxGeometry relative="1" as="geometry" />
        </mxCell>
        <mxCell id="ZdTx6Y_ycxj7G1otqzek-0" value="" style="ellipse;whiteSpace=wrap;html=1;aspect=fixed;" vertex="1" parent="WIyWlLk6GJQsqaUBKTNV-1">
          <mxGeometry x="374" y="40" width="80" height="80" as="geometry" />
        </mxCell>
        <mxCell id="ZdTx6Y_ycxj7G1otqzek-21" style="edgeStyle=orthogonalEdgeStyle;rounded=0;orthogonalLoop=1;jettySize=auto;html=1;exitX=1;exitY=0.5;exitDx=0;exitDy=0;" edge="1" parent="WIyWlLk6GJQsqaUBKTNV-1" source="ZdTx6Y_ycxj7G1otqzek-2" target="ZdTx6Y_ycxj7G1otqzek-12">
          <mxGeometry relative="1" as="geometry" />
        </mxCell>
        <mxCell id="ZdTx6Y_ycxj7G1otqzek-39" style="edgeStyle=orthogonalEdgeStyle;rounded=0;orthogonalLoop=1;jettySize=auto;html=1;exitX=0;exitY=0.5;exitDx=0;exitDy=0;entryX=0.374;entryY=-0.04;entryDx=0;entryDy=0;entryPerimeter=0;" edge="1" parent="WIyWlLk6GJQsqaUBKTNV-1" source="ZdTx6Y_ycxj7G1otqzek-2" target="ZdTx6Y_ycxj7G1otqzek-6">
          <mxGeometry relative="1" as="geometry" />
        </mxCell>
        <mxCell id="ZdTx6Y_ycxj7G1otqzek-2" value="B &amp;gt; C" style="rhombus;whiteSpace=wrap;html=1;" vertex="1" parent="WIyWlLk6GJQsqaUBKTNV-1">
          <mxGeometry x="480" y="310" width="80" height="80" as="geometry" />
        </mxCell>
        <mxCell id="ZdTx6Y_ycxj7G1otqzek-31" style="edgeStyle=orthogonalEdgeStyle;rounded=0;orthogonalLoop=1;jettySize=auto;html=1;exitX=0.5;exitY=1;exitDx=0;exitDy=0;entryX=0.5;entryY=0;entryDx=0;entryDy=0;" edge="1" parent="WIyWlLk6GJQsqaUBKTNV-1" source="ZdTx6Y_ycxj7G1otqzek-6" target="ZdTx6Y_ycxj7G1otqzek-23">
          <mxGeometry relative="1" as="geometry">
            <Array as="points">
              <mxPoint x="458" y="440" />
              <mxPoint x="458" y="460" />
              <mxPoint x="414" y="460" />
            </Array>
          </mxGeometry>
        </mxCell>
        <mxCell id="ZdTx6Y_ycxj7G1otqzek-6" value="&lt;span&gt;Напечатать B&lt;/span&gt;" style="rounded=1;whiteSpace=wrap;html=1;" vertex="1" parent="WIyWlLk6GJQsqaUBKTNV-1">
          <mxGeometry x="430" y="400" width="76" height="40" as="geometry" />
        </mxCell>
        <mxCell id="ZdTx6Y_ycxj7G1otqzek-18" style="edgeStyle=orthogonalEdgeStyle;rounded=0;orthogonalLoop=1;jettySize=auto;html=1;exitX=0;exitY=0.5;exitDx=0;exitDy=0;" edge="1" parent="WIyWlLk6GJQsqaUBKTNV-1" source="ZdTx6Y_ycxj7G1otqzek-8" target="ZdTx6Y_ycxj7G1otqzek-10">
          <mxGeometry relative="1" as="geometry" />
        </mxCell>
        <mxCell id="ZdTx6Y_ycxj7G1otqzek-19" style="edgeStyle=orthogonalEdgeStyle;rounded=0;orthogonalLoop=1;jettySize=auto;html=1;exitX=1;exitY=0.5;exitDx=0;exitDy=0;entryX=0.75;entryY=0;entryDx=0;entryDy=0;" edge="1" parent="WIyWlLk6GJQsqaUBKTNV-1" source="ZdTx6Y_ycxj7G1otqzek-8" target="ZdTx6Y_ycxj7G1otqzek-11">
          <mxGeometry relative="1" as="geometry" />
        </mxCell>
        <mxCell id="ZdTx6Y_ycxj7G1otqzek-8" value="A &amp;gt; C" style="rhombus;whiteSpace=wrap;html=1;" vertex="1" parent="WIyWlLk6GJQsqaUBKTNV-1">
          <mxGeometry x="280" y="310" width="80" height="80" as="geometry" />
        </mxCell>
        <mxCell id="ZdTx6Y_ycxj7G1otqzek-15" style="edgeStyle=orthogonalEdgeStyle;rounded=0;orthogonalLoop=1;jettySize=auto;html=1;exitX=0;exitY=0.5;exitDx=0;exitDy=0;entryX=0.5;entryY=0;entryDx=0;entryDy=0;" edge="1" parent="WIyWlLk6GJQsqaUBKTNV-1" source="ZdTx6Y_ycxj7G1otqzek-9" target="ZdTx6Y_ycxj7G1otqzek-8">
          <mxGeometry relative="1" as="geometry" />
        </mxCell>
        <mxCell id="ZdTx6Y_ycxj7G1otqzek-16" style="edgeStyle=orthogonalEdgeStyle;rounded=0;orthogonalLoop=1;jettySize=auto;html=1;exitX=1;exitY=0.5;exitDx=0;exitDy=0;entryX=0.5;entryY=0;entryDx=0;entryDy=0;" edge="1" parent="WIyWlLk6GJQsqaUBKTNV-1" source="ZdTx6Y_ycxj7G1otqzek-9" target="ZdTx6Y_ycxj7G1otqzek-2">
          <mxGeometry relative="1" as="geometry" />
        </mxCell>
        <mxCell id="ZdTx6Y_ycxj7G1otqzek-9" value="A &amp;gt; B" style="rhombus;whiteSpace=wrap;html=1;" vertex="1" parent="WIyWlLk6GJQsqaUBKTNV-1">
          <mxGeometry x="374" y="220" width="80" height="80" as="geometry" />
        </mxCell>
        <mxCell id="ZdTx6Y_ycxj7G1otqzek-25" style="edgeStyle=orthogonalEdgeStyle;rounded=0;orthogonalLoop=1;jettySize=auto;html=1;" edge="1" parent="WIyWlLk6GJQsqaUBKTNV-1" source="ZdTx6Y_ycxj7G1otqzek-10" target="ZdTx6Y_ycxj7G1otqzek-23">
          <mxGeometry relative="1" as="geometry">
            <Array as="points">
              <mxPoint x="248" y="460" />
              <mxPoint x="414" y="460" />
            </Array>
          </mxGeometry>
        </mxCell>
        <mxCell id="ZdTx6Y_ycxj7G1otqzek-10" value="Напечатать A" style="rounded=1;whiteSpace=wrap;html=1;" vertex="1" parent="WIyWlLk6GJQsqaUBKTNV-1">
          <mxGeometry x="220" y="400" width="76" height="40" as="geometry" />
        </mxCell>
        <mxCell id="ZdTx6Y_ycxj7G1otqzek-30" style="edgeStyle=orthogonalEdgeStyle;rounded=0;orthogonalLoop=1;jettySize=auto;html=1;exitX=0.5;exitY=1;exitDx=0;exitDy=0;entryX=0.5;entryY=0;entryDx=0;entryDy=0;" edge="1" parent="WIyWlLk6GJQsqaUBKTNV-1" source="ZdTx6Y_ycxj7G1otqzek-11" target="ZdTx6Y_ycxj7G1otqzek-23">
          <mxGeometry relative="1" as="geometry">
            <Array as="points">
              <mxPoint x="368" y="460" />
              <mxPoint x="414" y="460" />
            </Array>
          </mxGeometry>
        </mxCell>
        <mxCell id="ZdTx6Y_ycxj7G1otqzek-11" value="Напечатать C" style="rounded=1;whiteSpace=wrap;html=1;" vertex="1" parent="WIyWlLk6GJQsqaUBKTNV-1">
          <mxGeometry x="330" y="400" width="76" height="40" as="geometry" />
        </mxCell>
        <mxCell id="ZdTx6Y_ycxj7G1otqzek-26" style="edgeStyle=orthogonalEdgeStyle;rounded=0;orthogonalLoop=1;jettySize=auto;html=1;" edge="1" parent="WIyWlLk6GJQsqaUBKTNV-1" source="ZdTx6Y_ycxj7G1otqzek-12" target="ZdTx6Y_ycxj7G1otqzek-23">
          <mxGeometry relative="1" as="geometry">
            <Array as="points">
              <mxPoint x="588" y="460" />
              <mxPoint x="414" y="460" />
            </Array>
          </mxGeometry>
        </mxCell>
        <mxCell id="ZdTx6Y_ycxj7G1otqzek-12" value="&lt;span&gt;Напечатать C&lt;/span&gt;" style="rounded=1;whiteSpace=wrap;html=1;" vertex="1" parent="WIyWlLk6GJQsqaUBKTNV-1">
          <mxGeometry x="550" y="400" width="76" height="40" as="geometry" />
        </mxCell>
        <mxCell id="ZdTx6Y_ycxj7G1otqzek-23" value="Конец" style="ellipse;whiteSpace=wrap;html=1;aspect=fixed;" vertex="1" parent="WIyWlLk6GJQsqaUBKTNV-1">
          <mxGeometry x="374" y="490" width="80" height="80" as="geometry" />
        </mxCell>
        <mxCell id="ZdTx6Y_ycxj7G1otqzek-32" value="Начало" style="text;html=1;resizable=0;autosize=1;align=center;verticalAlign=middle;points=[];fillColor=none;strokeColor=none;rounded=0;" vertex="1" parent="WIyWlLk6GJQsqaUBKTNV-1">
          <mxGeometry x="384" y="70" width="60" height="20" as="geometry" />
        </mxCell>
        <mxCell id="ZdTx6Y_ycxj7G1otqzek-40" value="true" style="text;html=1;align=center;verticalAlign=middle;resizable=0;points=[];autosize=1;strokeColor=none;fillColor=none;" vertex="1" parent="WIyWlLk6GJQsqaUBKTNV-1">
          <mxGeometry x="320" y="230" width="40" height="20" as="geometry" />
        </mxCell>
        <mxCell id="ZdTx6Y_ycxj7G1otqzek-41" value="true" style="text;html=1;align=center;verticalAlign=middle;resizable=0;points=[];autosize=1;strokeColor=none;fillColor=none;" vertex="1" parent="WIyWlLk6GJQsqaUBKTNV-1">
          <mxGeometry x="240" y="320" width="40" height="20" as="geometry" />
        </mxCell>
        <mxCell id="ZdTx6Y_ycxj7G1otqzek-42" value="true" style="text;html=1;align=center;verticalAlign=middle;resizable=0;points=[];autosize=1;strokeColor=none;fillColor=none;" vertex="1" parent="WIyWlLk6GJQsqaUBKTNV-1">
          <mxGeometry x="440" y="320" width="40" height="20" as="geometry" />
        </mxCell>
        <mxCell id="ZdTx6Y_ycxj7G1otqzek-43" value="false" style="text;html=1;align=center;verticalAlign=middle;resizable=0;points=[];autosize=1;strokeColor=none;fillColor=none;" vertex="1" parent="WIyWlLk6GJQsqaUBKTNV-1">
          <mxGeometry x="475" y="230" width="40" height="20" as="geometry" />
        </mxCell>
        <mxCell id="ZdTx6Y_ycxj7G1otqzek-44" value="false" style="text;html=1;align=center;verticalAlign=middle;resizable=0;points=[];autosize=1;strokeColor=none;fillColor=none;" vertex="1" parent="WIyWlLk6GJQsqaUBKTNV-1">
          <mxGeometry x="568" y="320" width="40" height="20" as="geometry" />
        </mxCell>
        <mxCell id="ZdTx6Y_ycxj7G1otqzek-45" value="false" style="text;html=1;align=center;verticalAlign=middle;resizable=0;points=[];autosize=1;strokeColor=none;fillColor=none;" vertex="1" parent="WIyWlLk6GJQsqaUBKTNV-1">
          <mxGeometry x="361" y="320" width="40" height="20" as="geometry" />
        </mxCell>
      </root>
    </mxGraphModel>
  </diagram>
</mxfile>
